<?xml version="1.0" encoding="utf-8"?>
<!-- Generator: Adobe Illustrator 27.0.0, SVG Export Plug-In . SVG Version: 6.00 Build 0)  -->
<svg version="1.1" xmlns="http://www.w3.org/2000/svg" xmlns:xlink="http://www.w3.org/1999/xlink" x="0px" y="0px"
	 viewBox="0 0 750 500" style="enable-background:new 0 0 750 500;" xml:space="preserve">
<style type="text/css">
	.st0{fill:#92E3A9;}
	.st1{opacity:0.7;fill:#FFFFFF;}
	.st2{opacity:0.15;}
	.st3{fill:none;stroke:#263238;stroke-linecap:round;stroke-linejoin:round;stroke-miterlimit:10;}
	.st4{fill:#828282;stroke:#263238;stroke-linecap:round;stroke-linejoin:round;stroke-miterlimit:10;}
	.st5{fill:#FFFFFF;stroke:#263238;stroke-linecap:round;stroke-linejoin:round;stroke-miterlimit:10;}
	.st6{fill:#263238;stroke:#263238;stroke-linecap:round;stroke-linejoin:round;stroke-miterlimit:10;}
	.st7{fill:#92E3A9;stroke:#263238;stroke-linecap:round;stroke-linejoin:round;stroke-miterlimit:10;}
	.st8{fill:#263238;}
	.st9{fill:#525252;stroke:#263238;stroke-linecap:round;stroke-linejoin:round;stroke-miterlimit:10;}
</style>
<g id="Background_Simple">
	<g>
		<path class="st0" d="M32.6,438.6c-0.3,5.8,6.9,12.8,18.2,19.4h635.8c11.4-6.5,18.5-13.6,18.2-19.4c-0.7-14.9-37.5-18.6-39.6-35.7
			s67.4-114.4,36.8-156.8c-30.6-42.4-105.6-4.5-112.9-12.8C581.9,225,632,130.2,582,93.8c-50-36.4-157,18.6-157,18.6
			c-5,1.6-32.6,16.3-56.3,29.1c-23.6-12.7-51.2-27.4-56.3-29.1c0,0-107-55-157-18.6c-50,36.4,0.1,131.2-7.3,139.5
			c-7.3,8.4-82.3-29.5-112.9,12.8C4.8,288.5,74.3,385.9,72.2,403C70.1,420.1,33.3,423.8,32.6,438.6z"/>
		<path class="st1" d="M32.6,438.6c-0.3,5.8,6.9,12.8,18.2,19.4h635.8c11.4-6.5,18.5-13.6,18.2-19.4c-0.7-14.9-37.5-18.6-39.6-35.7
			s67.4-114.4,36.8-156.8c-30.6-42.4-105.6-4.5-112.9-12.8C581.9,225,632,130.2,582,93.8c-50-36.4-157,18.6-157,18.6
			c-5,1.6-32.6,16.3-56.3,29.1c-23.6-12.7-51.2-27.4-56.3-29.1c0,0-107-55-157-18.6c-50,36.4,0.1,131.2-7.3,139.5
			c-7.3,8.4-82.3-29.5-112.9,12.8C4.8,288.5,74.3,385.9,72.2,403C70.1,420.1,33.3,423.8,32.6,438.6z"/>
	</g>
</g>
<g id="Plants">
	<g class="st2">
		<path d="M714.7,351.2c-3.7,1.5-12.5,1.1-12.5,1.1c-0.1,0,2-5.8,2.2-6.1c2-4,8.3-10.6,13.3-9.8c3.6,0.6,5.5,4.2,4.6,7.6
			C721.4,347.4,717.8,349.9,714.7,351.2z"/>
		<path d="M711.1,376.8c-3.8,0.5-11.6-2-12.3-2.2c-1.3,4.4-3.1,8.8-5.1,13.2c-1.1,2.5-2.4,5-3.6,7.4c0.7-1,1.4-2,1.5-2.1
			c3-3.4,10.8-8.1,15.4-6c3.3,1.5,4.2,5.5,2.5,8.5c-1.8,3.1-5.9,4.6-9.3,5c-3.4,0.4-10.1-1.5-11.9-2.1c-0.5,0.9-1,1.9-1.5,2.8
			c-2.4,4.5-4.8,9-7,13.5c-0.8,1.6-1.5,3.2-2.2,4.7c0.7-0.9,1.2-1.7,1.3-1.8c3-3.3,10.8-8.1,15.4-6c3.3,1.5,4.2,5.5,2.5,8.5
			c-1.8,3.1-5.9,4.6-9.3,5c-3.2,0.4-9.5-1.3-11.6-2c-0.7,1.6-1.4,3.3-2,4.9c-0.4,1.1-0.8,2.2-1.1,3.3c-0.3,1.1-0.7,2.2-1,3.3
			c-0.6,2.1-1.2,4.4-1.6,6.5c-0.4,1.5-0.7,2.9-1,4.3c0.8-1.6,2.3-4.6,2.5-4.9c2.5-3.8,9.5-9.6,14.3-8.3c3.5,1,5,4.8,3.7,8.1
			c-1.3,3.3-5.2,5.4-8.4,6.3c-3.6,1-11.4-0.1-12.4-0.3c-0.5,2.3-1,4.6-1.4,6.8c-0.3,1.6-0.6,3.1-0.9,4.6l-3.1-0.1
			c0.3-1.6,0.7-3.4,1.1-5.1c0.5-2.4,1.1-4.9,1.8-7.5c-0.6-0.2-3.9-1.7-6.8-3.4c-2.6,2.7-9.3,5.9-10.2,6.3c0.9,2.2,1.7,4.4,2.6,6.4
			c0.4,1.1,0.9,2.1,1.3,3.1l-3.3-0.1c-0.3-0.6-0.5-1.3-0.8-1.9c-0.9-2.3-1.8-4.7-2.7-7.2c-1,0.2-8.8,1.6-12.4,0.7
			c-3.3-0.8-7.2-2.7-8.6-6c-1.4-3.2,0-7.1,3.5-8.2c4.8-1.5,12,4.1,14.6,7.7c0.2,0.2,1.6,2.8,2.4,4.4c-0.4-1-0.7-2-1.1-3.1
			c-0.7-2.1-1.4-4.2-2.1-6.5c-0.3-1.1-0.6-2.2-0.9-3.4c-0.3-1.1-0.5-2.3-0.8-3.5c-0.6-2.7-1.1-5.6-1.5-8.4
			c-1.8,0.6-8.4,2.8-11.8,2.5c-3.4-0.3-7.5-1.6-9.4-4.6c-1.8-3-1.1-7,2.2-8.6c4.5-2.2,12.5,2.2,15.6,5.4c0.2,0.2,2.2,2.8,3.2,4.2
			c-0.2-1.7-0.5-3.4-0.7-5.2c-0.5-5-0.9-10.1-1.3-15.2c-0.1-1.6-0.3-3.1-0.4-4.7c-0.7,0.2-8.4,2.9-12.2,2.6
			c-3.4-0.3-7.5-1.6-9.4-4.6c-1.8-3-1.1-7,2.2-8.6c4.5-2.2,12.5,2.2,15.6,5.4c0.2,0.2,3.1,4,3.8,4.9c-0.3-3.4-0.6-6.8-1.1-10.2
			c-0.6-4.6-1.5-9.1-2.6-13.4c-0.3,0.1-8.4,3-12.2,2.6c-3.4-0.3-7.5-1.6-9.4-4.6c-1.8-3-1.1-7,2.2-8.6c4.5-2.2,12.5,2.2,15.6,5.4
			c0.2,0.3,3.3,4.3,3.8,5c-0.1-0.3-0.1-0.5-0.2-0.8c-1.3-4.6-3.1-8.8-5-12.7c-1.1-2.3-2.3-4.4-3.5-6.4c-1.4,0.7-8.1,3.8-11.6,3.8
			c-3.4,0.1-7.7-0.8-9.9-3.6c-2.2-2.7-1.9-6.9,1.2-8.8c4.3-2.7,12.7,0.8,16.1,3.7c0.2,0.2,1.9,2,3.2,3.3c-0.6-0.9-1.1-1.9-1.7-2.7
			c-2-3.2-4.1-6-6-8.5c-1.1-1.4-2.1-2.7-3-3.8c-1.8-0.1-8.9-0.4-12-2c-3-1.5-6.5-4.2-7.1-7.7c-0.7-3.4,1.5-6.9,5.1-7.3
			c5-0.4,10.9,6.6,12.6,10.7c0.2,0.4,1.9,6.2,1.8,6.2c0,0-0.1,0-0.1,0c0.9,1.1,1.9,2.3,3,3.6c1.9,2.5,4.1,5.2,6.2,8.4
			c2.1,3.2,4.4,6.7,6.4,10.6c2,3.9,3.9,8.2,5.4,12.8c0,0.1,0,0.1,0,0.2c0-1.5,0.2-5.6,0.2-5.9c0.7-4.5,4.6-12.7,9.6-13.5
			c3.6-0.6,6.6,2.3,6.8,5.8c0.2,3.6-2.4,7.1-5,9.3c-2.9,2.5-10.8,4.8-11.4,4.9c1.3,4.4,2.3,9,3,13.8c0.4,2.7,0.8,5.5,1.1,8.2
			c0-1.3,0.1-2.4,0.1-2.6c0.7-4.5,4.6-12.7,9.6-13.5c3.6-0.6,6.6,2.3,6.8,5.8c0.2,3.6-2.4,7.1-5,9.3c-2.6,2.2-9.3,4.3-11.1,4.8
			c0.1,1.1,0.2,2.1,0.3,3.2c0.5,5.1,1,10.1,1.6,15.1c0.2,1.7,0.5,3.5,0.8,5.2c0-1.1,0.1-2.1,0.1-2.2c0.7-4.5,4.6-12.7,9.6-13.5
			c3.6-0.6,6.6,2.3,6.8,5.8c0.2,3.6-2.4,7.1-5,9.3c-2.5,2.1-8.6,4.1-10.8,4.7c0.3,1.7,0.7,3.5,1.1,5.2c0.3,1.1,0.5,2.3,0.9,3.4
			c0.3,1.1,0.7,2.2,1,3.3c0.7,2.1,1.4,4.3,2.2,6.3c0.5,1.4,1,2.8,1.5,4.1c-0.2-1.7-0.6-5.1-0.6-5.4c0-3,1.2-7.8,3.3-11.2
			c0-0.4,0-0.9,0.1-1.3c0.6-3.4,3.9-5.9,7.4-4.9c4.9,1.4,7.8,10,7.9,14.5c0,0.3-0.2,3.2-0.4,5c0.3-1.1,0.5-2.1,0.8-3.2
			c0.6-2.1,1.2-4.3,1.8-6.6c0.4-1.1,0.7-2.2,1.1-3.3c0.3-1.1,0.8-2.2,1.2-3.4c1-2.6,2.2-5.2,3.4-7.8c-1.9-0.5-8.5-2.3-11.2-4.4
			c-2.6-2.1-5.4-5.5-5.3-9.1c0.1-3.5,3-6.5,6.6-6c5,0.6,9.2,8.7,10,13.2c0.1,0.3,0.3,3.5,0.4,5.3c0.7-1.6,1.5-3.1,2.3-4.7
			c2.3-4.5,4.8-8.9,7.3-13.4c0.8-1.4,1.5-2.7,2.2-4.1c-0.7-0.2-8.6-2.2-11.6-4.5c-2.6-2.1-5.4-5.5-5.3-9.1c0.1-3.5,3-6.5,6.6-6
			c5,0.6,9.2,8.7,10,13.2c0.1,0.3,0.4,5,0.4,6.2c1.6-3,3.2-6,4.7-9.1c2-4.2,3.8-8.4,5.2-12.6c-0.3-0.1-8.6-2.1-11.6-4.6
			c-2.6-2.1-5.4-5.5-5.3-9.1c0.1-3.5,3-6.5,6.6-6c5,0.6,9.2,8.7,10,13.2c0.1,0.3,0.4,5.4,0.4,6.3c0.1-0.3,0.2-0.5,0.3-0.8
			c1.4-4.5,2.3-9.1,2.8-13.4c0.3-2.5,0.5-4.9,0.6-7.3c-1.6-0.2-8.8-1.3-11.8-3.2c-2.8-1.8-6-4.9-6.3-8.4c-0.3-3.5,2.2-6.7,5.9-6.7
			c5,0.1,10.1,7.7,11.4,12c0.1,0.2,0.5,2.7,0.8,4.5c0-1.1,0.1-2.2,0.1-3.2c0.1-3.8-0.1-7.3-0.3-10.4c-0.1-1.8-0.3-3.4-0.4-4.8
			c-1.4-1-7.2-5.3-8.9-8.3c-1.7-2.9-3-7.1-1.7-10.4c1.3-3.2,5.1-4.9,8.3-3.2c4.4,2.4,5.4,11.5,4.6,15.9c-0.1,0.4-1.9,6.2-2,6.2
			c0,0-0.1-0.1-0.1-0.1c0.2,1.4,0.3,3,0.5,4.6c0.2,3.1,0.5,6.6,0.5,10.4c0,3.8-0.1,8-0.5,12.4c-0.5,4.4-1.2,9-2.6,13.6
			c0,0.1,0,0.1-0.1,0.2c0.8-1.2,3.2-4.6,3.4-4.8c3-3.4,10.8-8.1,15.4-6c3.3,1.5,4.2,5.5,2.5,8.5
			C718.6,374.9,714.4,376.3,711.1,376.8z"/>
		<path d="M625,351.3c-0.1,0-1.5-5.9-1.5-6.3c-0.5-4.5,1.1-13.4,5.7-15.5c3.3-1.5,6.9,0.5,8.1,3.8c1.2,3.4-0.5,7.5-2.4,10.2
			C632.6,346.7,625,351.3,625,351.3z"/>
	</g>
	<g class="st2">
		<path d="M147.4,351.2c-3.7,1.5-12.5,1.1-12.5,1.1c-0.1,0,2-5.8,2.2-6.1c2-4,8.3-10.6,13.3-9.8c3.6,0.6,5.5,4.2,4.6,7.6
			C154.1,347.4,150.5,349.9,147.4,351.2z"/>
		<path d="M143.8,376.8c-3.8,0.5-11.6-2-12.3-2.2c-1.3,4.4-3.1,8.8-5.1,13.2c-1.1,2.5-2.4,5-3.6,7.4c0.7-1,1.4-2,1.5-2.1
			c3-3.4,10.8-8.1,15.4-6c3.3,1.5,4.2,5.5,2.5,8.5c-1.8,3.1-5.9,4.6-9.3,5c-3.4,0.4-10.1-1.5-11.9-2.1c-0.5,0.9-1,1.9-1.5,2.8
			c-2.4,4.5-4.8,9-7,13.5c-0.8,1.6-1.5,3.2-2.2,4.7c0.7-0.9,1.2-1.7,1.3-1.8c3-3.3,10.8-8.1,15.4-6c3.3,1.5,4.2,5.5,2.5,8.5
			c-1.8,3.1-5.9,4.6-9.3,5c-3.2,0.4-9.5-1.3-11.6-2c-0.7,1.6-1.4,3.3-2,4.9c-0.4,1.1-0.8,2.2-1.1,3.3c-0.3,1.1-0.7,2.2-1,3.3
			c-0.6,2.1-1.2,4.4-1.6,6.5c-0.4,1.5-0.7,2.9-1,4.3c0.8-1.6,2.3-4.6,2.5-4.9c2.5-3.8,9.5-9.6,14.3-8.3c3.5,1,5,4.8,3.7,8.1
			c-1.3,3.3-5.2,5.4-8.4,6.3c-3.6,1-11.4-0.1-12.4-0.3c-0.5,2.3-1,4.6-1.4,6.8c-0.3,1.6-0.6,3.1-0.9,4.6l-3.1-0.1
			c0.3-1.6,0.7-3.4,1.1-5.1c0.5-2.4,1.1-4.9,1.8-7.5c-0.6-0.2-3.9-1.7-6.8-3.4c-2.6,2.7-9.3,5.9-10.2,6.3c0.9,2.2,1.7,4.4,2.6,6.4
			c0.4,1.1,0.9,2.1,1.3,3.1l-3.3-0.1c-0.3-0.6-0.5-1.3-0.8-1.9c-0.9-2.3-1.8-4.7-2.7-7.2c-1,0.2-8.8,1.6-12.4,0.7
			c-3.3-0.8-7.2-2.7-8.6-6c-1.4-3.2,0-7.1,3.5-8.2c4.8-1.5,12,4.1,14.6,7.7c0.2,0.2,1.6,2.8,2.4,4.4c-0.4-1-0.7-2-1.1-3.1
			c-0.7-2.1-1.4-4.2-2.1-6.5c-0.3-1.1-0.6-2.2-0.9-3.4c-0.3-1.1-0.5-2.3-0.8-3.5c-0.6-2.7-1.1-5.6-1.5-8.4
			c-1.8,0.6-8.4,2.8-11.8,2.5c-3.4-0.3-7.5-1.6-9.4-4.6c-1.8-3-1.1-7,2.2-8.6c4.5-2.2,12.5,2.2,15.6,5.4c0.2,0.2,2.2,2.8,3.2,4.2
			c-0.2-1.7-0.5-3.4-0.7-5.2c-0.5-5-0.9-10.1-1.3-15.2c-0.1-1.6-0.3-3.1-0.4-4.7c-0.7,0.2-8.4,2.9-12.2,2.6
			c-3.4-0.3-7.5-1.6-9.4-4.6c-1.8-3-1.1-7,2.2-8.6c4.5-2.2,12.5,2.2,15.6,5.4c0.2,0.2,3.1,4,3.8,4.9c-0.3-3.4-0.6-6.8-1.1-10.2
			c-0.6-4.6-1.5-9.1-2.6-13.4c-0.3,0.1-8.4,3-12.2,2.6c-3.4-0.3-7.5-1.6-9.4-4.6c-1.8-3-1.1-7,2.2-8.6c4.5-2.2,12.5,2.2,15.6,5.4
			c0.2,0.3,3.3,4.3,3.8,5c-0.1-0.3-0.1-0.5-0.2-0.8c-1.3-4.6-3.1-8.8-5-12.7c-1.1-2.3-2.3-4.4-3.5-6.4c-1.4,0.7-8.1,3.8-11.6,3.8
			c-3.4,0.1-7.7-0.8-9.9-3.6c-2.2-2.7-1.9-6.9,1.2-8.8c4.3-2.7,12.7,0.8,16.1,3.7c0.2,0.2,1.9,2,3.2,3.3c-0.6-0.9-1.1-1.9-1.7-2.7
			c-2-3.2-4.1-6-6-8.5c-1.1-1.4-2.1-2.7-3-3.8c-1.8-0.1-8.9-0.4-12-2c-3-1.5-6.5-4.2-7.1-7.7c-0.7-3.4,1.5-6.9,5.1-7.3
			c5-0.4,10.9,6.6,12.6,10.7c0.2,0.4,1.9,6.2,1.8,6.2c0,0-0.1,0-0.1,0c0.9,1.1,1.9,2.3,3,3.6c1.9,2.5,4.1,5.2,6.2,8.4
			c2.1,3.2,4.4,6.7,6.4,10.6c2,3.9,3.9,8.2,5.4,12.8c0,0.1,0,0.1,0,0.2c0-1.5,0.2-5.6,0.2-5.9c0.7-4.5,4.6-12.7,9.6-13.5
			c3.6-0.6,6.6,2.3,6.8,5.8c0.2,3.6-2.4,7.1-5,9.3c-2.9,2.5-10.8,4.8-11.4,4.9c1.3,4.4,2.3,9,3,13.8c0.4,2.7,0.8,5.5,1.1,8.2
			c0-1.3,0.1-2.4,0.1-2.6c0.7-4.5,4.6-12.7,9.6-13.5c3.6-0.6,6.6,2.3,6.8,5.8c0.2,3.6-2.4,7.1-5,9.3c-2.6,2.2-9.3,4.3-11.1,4.8
			c0.1,1.1,0.2,2.1,0.3,3.2c0.5,5.1,1,10.1,1.6,15.1c0.2,1.7,0.5,3.5,0.8,5.2c0-1.1,0.1-2.1,0.1-2.2c0.7-4.5,4.6-12.7,9.6-13.5
			c3.6-0.6,6.6,2.3,6.8,5.8c0.2,3.6-2.4,7.1-5,9.3c-2.5,2.1-8.6,4.1-10.8,4.7c0.3,1.7,0.7,3.5,1.1,5.2c0.3,1.1,0.5,2.3,0.9,3.4
			c0.3,1.1,0.7,2.2,1,3.3c0.7,2.1,1.4,4.3,2.2,6.3c0.5,1.4,1,2.8,1.5,4.1c-0.2-1.7-0.6-5.1-0.6-5.4c0-3,1.2-7.8,3.3-11.2
			c0-0.4,0-0.9,0.1-1.3c0.6-3.4,3.9-5.9,7.4-4.9c4.9,1.4,7.8,10,7.9,14.5c0,0.3-0.2,3.2-0.4,5c0.3-1.1,0.5-2.1,0.8-3.2
			c0.6-2.1,1.2-4.3,1.8-6.6c0.4-1.1,0.7-2.2,1.1-3.3c0.3-1.1,0.8-2.2,1.2-3.4c1-2.6,2.2-5.2,3.4-7.8c-1.9-0.5-8.5-2.3-11.2-4.4
			c-2.6-2.1-5.4-5.5-5.3-9.1c0.1-3.5,3-6.5,6.6-6c5,0.6,9.2,8.7,10,13.2c0.1,0.3,0.3,3.5,0.4,5.3c0.7-1.6,1.5-3.1,2.3-4.7
			c2.3-4.5,4.8-8.9,7.3-13.4c0.8-1.4,1.5-2.7,2.2-4.1c-0.7-0.2-8.6-2.2-11.6-4.5c-2.6-2.1-5.4-5.5-5.3-9.1c0.1-3.5,3-6.5,6.6-6
			c5,0.6,9.2,8.7,10,13.2c0.1,0.3,0.4,5,0.4,6.2c1.6-3,3.2-6,4.7-9.1c2-4.2,3.8-8.4,5.2-12.6c-0.3-0.1-8.6-2.1-11.6-4.6
			c-2.6-2.1-5.4-5.5-5.3-9.1c0.1-3.5,3-6.5,6.6-6c5,0.6,9.2,8.7,10,13.2c0.1,0.3,0.4,5.4,0.4,6.3c0.1-0.3,0.2-0.5,0.3-0.8
			c1.4-4.5,2.3-9.1,2.8-13.4c0.3-2.5,0.5-4.9,0.6-7.3c-1.6-0.2-8.8-1.3-11.8-3.2c-2.8-1.8-6-4.9-6.3-8.4c-0.3-3.5,2.2-6.7,5.9-6.7
			c5,0.1,10.1,7.7,11.4,12c0.1,0.2,0.5,2.7,0.8,4.5c0-1.1,0.1-2.2,0.1-3.2c0.1-3.8-0.1-7.3-0.3-10.4c-0.1-1.8-0.3-3.4-0.4-4.8
			c-1.4-1-7.2-5.3-8.9-8.3c-1.7-2.9-3-7.1-1.7-10.4c1.3-3.2,5.1-4.9,8.3-3.2c4.4,2.4,5.4,11.5,4.6,15.9c-0.1,0.4-1.9,6.2-2,6.2
			c0,0-0.1-0.1-0.1-0.1c0.2,1.4,0.3,3,0.5,4.6c0.2,3.1,0.5,6.6,0.5,10.4c0,3.8-0.1,8-0.5,12.4c-0.5,4.4-1.2,9-2.6,13.6
			c0,0.1,0,0.1-0.1,0.2c0.8-1.2,3.2-4.6,3.4-4.8c3-3.4,10.8-8.1,15.4-6c3.3,1.5,4.2,5.5,2.5,8.5
			C151.3,374.9,147.1,376.3,143.8,376.8z"/>
		<path d="M57.7,351.3c-0.1,0-1.5-5.9-1.5-6.3c-0.5-4.5,1.1-13.4,5.7-15.5c3.3-1.5,6.9,0.5,8.1,3.8c1.2,3.4-0.5,7.5-2.4,10.2
			C65.3,346.7,57.7,351.3,57.7,351.3z"/>
	</g>
</g>
<g id="Line">
	<line class="st3" x1="43.4" y1="458" x2="707.2" y2="458"/>
</g>
<g id="Clouds">
	<path class="st3" d="M619,81.1c0,0-20.5-24.1-42.8-24.1c-22.3,0-24.9,14.3-32.1,23.2c-7.1,8.9-16-2.7-25.8,0.9
		c-9.8,3.6-9.8,9.8-16,14.3c-6.2,4.5-13.4-3.6-24.9-2.7c-11.6,0.9-17.8,11.6-17.8,11.6h198.7c0,0-8-18.7-18.7-20.5
		C628.8,82,628.8,88.3,619,81.1z"/>
	<path class="st3" d="M481.8,63.1c0,0-11.2-13.2-23.4-13.2c-12.2,0-13.6,7.8-17.5,12.7c-3.9,4.9-8.8-1.5-14.1,0.5
		c-5.4,1.9-5.4,5.4-8.8,7.8c-3.4,2.4-7.3-1.9-13.6-1.5c-6.3,0.5-9.7,6.3-9.7,6.3h108.7c0,0-4.4-10.2-10.2-11.2
		C487.1,63.6,487.1,67,481.8,63.1z"/>
	<path class="st3" d="M216.3,80.9c0,0-19.1-22.4-39.8-22.4c-20.7,0-23.2,13.3-29.8,21.6c-6.6,8.3-14.9-2.5-24,0.8
		c-9.1,3.3-9.1,9.1-14.9,13.3c-5.8,4.1-12.4-3.3-23.2-2.5c-10.8,0.8-16.6,10.8-16.6,10.8h184.9c0,0-7.5-17.4-17.4-19.1
		C225.4,81.7,225.4,87.5,216.3,80.9z"/>
</g>
<g id="Characters">
	<g>
		<g>
			<g>
				<path class="st4" d="M561.5,458h80.6c-0.7-5.6-3.2-25.5-8.4-46.7c-6.1-25-20.1-43.5-20.1-43.5s-24.1,12.9-38.6,17.1
					c-14.4,4.3-23.5,5.6-23.5,5.6s6.8,32.9,8.3,44.9C561.1,443.8,561.4,453.1,561.5,458z"/>
				<g>
					<path class="st3" d="M621.7,419.4c-5.2,9.2-14.7,25.9-18.2,31.7"/>
					<path class="st3" d="M625.3,413c0,0-0.6,1-1.5,2.6"/>
					<line class="st3" x1="615" y1="420.7" x2="592.7" y2="456.5"/>
				</g>
			</g>
			<path class="st5" d="M602.9,290.4l-5.6,37.2c0,0,14.2,35.2,16.7,38.1c2.5,2.9,2.5,2.9,2.5,2.9s-10.2,7-28.2,14.9
				c-18.1,7.9-32.3,8.1-32.3,8.1s-8.1-49-10.6-67.9c-2.5-19-13.3-69.5-12.2-76.7c1.1-7.2,5.6-11.5,23.5-19.9
				c17.8-8.3,30.5,2.3,37.7,16.5C601.5,257.9,603.3,284.5,602.9,290.4z"/>
		</g>
		<path class="st6" d="M182.5,234.7l5.4,31.6c0,0-5.9,6.5-10.3,7.6c-4.3,1.1-9.2-1.9-10.8-5.9c-1.6-4.1-3.2-31.6-3.2-31.6
			S176.5,237.1,182.5,234.7z"/>
		<g>
			<path class="st6" d="M205.3,458l-2.3-39.3l-72.2-13.2c0,0-5.4,8.6-9.7,23.5c-3.1,10.7,0.4,23,2.6,29H205.3z"/>
			<path class="st7" d="M116.5,275.7l14.9,45.9l15.9,50c0,0-13.8,26.2-15.4,30.3c-1.6,4.1-3,6.8-3,6.8s17,11.1,39.5,12.7
				c22.4,1.6,34.6-2.7,34.6-2.7s4.1-23,4.1-40.5c0-17.6-9.7-60.8-13.5-74.9c-3.8-14.1-9.7-34.1-9.7-34.1l-45.9-12.2
				C137.9,257.1,118.7,250.6,116.5,275.7z"/>
			<path class="st5" d="M116.5,275.7l11,34c0.4,0,0.8,0,1.2,0c13.8,0,24.9-13.1,24.9-29.2c0-8.5-3.1-16.2-8.1-21.5l-7.6-2
				C137.9,257.1,118.7,250.6,116.5,275.7z"/>
		</g>
		<path class="st5" d="M166.8,236.6c0,0-1.4,16.8-0.5,20.5c0.8,3.8,7.6,14.6,7,17.8c-0.5,3.2-13.5-4.1-17.3-10.8s-7.8-34.1-7.8-34.1
			L166.8,236.6z"/>
		<g>
			<path class="st5" d="M179.5,177.9c0,0,6.8,19.5,8.6,28.6c1.9,9.2-0.3,18.6-5.7,28.1c-5.4,9.5-13.8,5.9-14.9,5.7
				c-1.1-0.3-18.6-6.8-20-7.8c-1.4-1.1-13.8-42.4-13.8-42.4s13.2-8.9,23-10.8c9.7-1.9,20.8-3.5,20.8-3.5L179.5,177.9z"/>
			<path class="st3" d="M171.4,191.7c0,0,1.6,7.6,3,10c1.4,2.4,7.3,9.7,6.5,10.3c-0.8,0.5-6.8,2.4-6.8,2.4"/>
			<path class="st3" d="M159.5,219c0,0,3.5,5.9,13.2,3"/>
			<path class="st3" d="M161.9,191.7c0,0-7.8,1.1-10,5.7"/>
			<path class="st5" d="M153.1,196.6c-0.8,0-1.5-0.7-1.5-1.5c0-0.5,0.2-0.9,0.6-1.1c0,0,0,0,0,0c-1.2,0-2.2,0.9-2.2,2.1
				s1,2.1,2.2,2.1c1.2,0,2.2-0.9,2.2-2.1c0,0,0-0.1,0-0.1C154,196.3,153.6,196.6,153.1,196.6z"/>
			<path class="st3" d="M173.8,189.5c0,0,3.2-3.5,7.3-1.6"/>
			<path class="st8" d="M162.2,203.5c0,1.6-0.7,2.8-1.6,2.8c-0.9,0-1.6-1.3-1.6-2.8c0-1.6,0.7-2.8,1.6-2.8
				C161.5,200.6,162.2,201.9,162.2,203.5z"/>
			<path class="st8" d="M180.3,198.7c0,1.6-0.7,2.8-1.6,2.8c-0.9,0-1.6-1.3-1.6-2.8c0-1.6,0.7-2.8,1.6-2.8
				C179.6,195.9,180.3,197.2,180.3,198.7z"/>
		</g>
		<path class="st6" d="M141.7,185.5c0,0,11.9,60.8,16.5,75.7c4.6,14.9,4.9,35.4,4.9,35.4s-24.6-30.3-33.8-32.4
			c-9.2-2.2-12.2,8.9-10.8,16.5c1.4,7.6,13,41.1,13,41.1s-12.7,0.8-22.4-6.2c-9.7-7-15.1-16.8-11.9-32.7c3.2-15.9,8.6-46.2,9.2-59.7
			c0.5-13.5,0.5-18.9,0.5-18.9S126.8,186.6,141.7,185.5z"/>
		<g>
			<path class="st7" d="M176,168.5c0,0-4.6-7.3-19.5-11.6s-33.8-3.8-38.1-4.3c-4.3-0.5-10.8-1.9-12.4,2.7c-1.6,4.6,1.4,9.2,1.4,10.5
				c0,1.4-4.6,15.7-3.8,25.1c0.8,9.5,0.8,9.5,0.8,9.5s26.8-19.5,40.5-23.2c13.8-3.8,20.8-5.9,21.9-5.9
				C167.9,171.2,176,168.5,176,168.5z"/>
			<g>
				<path class="st7" d="M106.8,213c0,0,29.5-30,73-32.4c0,0,1.4,1.4,1.9,0c0.5-1.4-2.2-7.8-3.5-11.1c-1.4-3.2-1.6-3-4.9-3
					s-25.7,4.6-41.1,11.1c-15.4,6.5-27.3,19.2-27.8,22.7c-0.5,3.5-0.5,6.2-0.3,9.2C104.4,212.5,105.2,213.6,106.8,213z"/>
				<path class="st3" d="M109.6,193.8c0,0,2,7,2.3,9"/>
				<line class="st3" x1="114.4" y1="191" x2="115.8" y2="197.7"/>
				<line class="st3" x1="138.6" y1="176" x2="140.3" y2="181.1"/>
				<line class="st3" x1="158.6" y1="172.9" x2="162" y2="182"/>
				<line class="st3" x1="167.3" y1="169" x2="168.4" y2="172.9"/>
			</g>
		</g>
		<path class="st5" d="M203.8,208.5c0,0-7-1.9-6.5,4.1c0.5,5.9,5.7,10.3,9.5,12.2s3.8,1.9,3.8,1.9l6.8,20.8c0,0,16.8-1.4,27-1.4
			c10.3,0,16.5,0,16.5,0l1.1-17.6c0,0,2.4-6.8,2.7-8.4c0.3-1.6,0.3-4.3,0.3-4.3s4.9-10,3.5-15.9c-1.4-5.9-5.4-6.5-7.6-4.9
			c-2.2,1.6-5.1,6.8-5.1,6.8l-8.1,21.3l-20.3,4.9L203.8,208.5z"/>
		<path class="st6" d="M204.9,165.8c0,0-11.6,15.7-9.7,22.4c1.9,6.8,8.9,24.9,11.4,28.9c2.4,4.1,13.5,14.1,14.6,14.9
			c1.1,0.8,22.5-2,23.6-2.6c1.1-0.5,9.3-4.2,9.3-4.2s7.6-17.6,7.9-21.1c0.3-3.5,0-16.8,0-16.8s-9.2-21.1-16.5-26.8
			c-7.3-5.7-10.3-6.2-20.3-7c-10-0.8-8.4,3.5-8.4,3.5s-17.6-2.2-16.8,1.4c0.8,3.5,6.5,4.1,6.5,4.1s-7.8,1.6-7,2.2
			C200.3,165.2,204.9,165.8,204.9,165.8z"/>
		<path class="st5" d="M212.2,244.7l-7.8,13c0,0,12.7-4.1,30.8-4.9c18.1-0.8,33.5,0.8,33.5,0.8s-4.6-10.8-7.3-11.4
			C258.7,241.7,223,238.2,212.2,244.7z"/>
		<g>
			<g>
				<path class="st5" d="M161.6,350.6c0,0-35.7-14.9-37-16.5c-1.4-1.6-6.8-14.3-6.8-14.3s-5.7-2.4-7.3-4.6c-1.6-2.2-6.5-6.5-7.6-4.3
					c-1.1,2.2,0,5.1,1.4,6.8c1.4,1.6,4.6,5.4,4.6,5.4s-10-3.8-15.4-4.6c-5.4-0.8-13.2,1.1-13.2,3c0,1.9,1.4,2.7,3.2,3.2
					c1.9,0.5,3.8,1.6,3.8,1.6l3.8,7.8c0,0,11.4,12.7,14.6,13.5c3.2,0.8,7.6,1.6,10.5,2.7s33.5,23.5,33.5,23.5l7,4.9l7.3-26.2
					L161.6,350.6z"/>
				<path class="st5" d="M87.3,326.3c0,0,6.2,3,8.9,4.9"/>
				<path class="st5" d="M91.1,334.1c0,0,5.9,4.1,8.1,5.1"/>
			</g>
			<path class="st5" d="M161.6,350.6c0,0-3.2-0.5-4.6,3c-1.4,3.5-4.9,17.8-4.1,21.6c0.8,3.8,10.5,13.8,24.1,11.9
				c13.5-1.9,16.8-10.5,17.3-13s0.3-10,0.3-10s-10,3.8-15.4,3.2C173.8,366.8,162.5,353.8,161.6,350.6z"/>
		</g>
		<path class="st6" d="M317.5,458l-5.1-29.8c0,0-22.4,9.7-57.6,11.6c-35.1,1.9-55.9-11.1-55.9-11.1l0.8,29.3H317.5z"/>
		<g>
			<path class="st5" d="M542.9,152.7c0,0-9.3,7-12,13.1c-2.7,6.1-3.2,10.2-4.5,12.9c-1.4,2.7-9.7,5.9-9.5,7.9c0.2,2,3.8,5.2,3.8,5.2
				s-0.7,11.1-1.1,15.6c-0.5,4.5-1.1,6.3,2.3,7.7c3.4,1.4,14,0.5,14,0.5l7.4,16.2l24.6-21.7c0,0,6.8-4.3,6.3-19.4
				c-0.5-15.1-7.7-29.6-14.2-32.7C553.5,154.7,542.9,152.7,542.9,152.7z"/>
			<path class="st6" d="M537.7,145.7c0,0-2.7,12.9,1.1,16.7s9.3,1.1,11.3,4.3c2,3.2-1.1,9.7,0.5,12.9c1.6,3.2,5.9,8.1,5.9,8.1
				s-2.5,1.6-1.6,3.2s2.5,2,2.5,2s4.3,2.3,4.7,7.9c0.5,5.6,0.7,5.9-6.8,12.2c-7.4,6.3-22.3,22.3-6.1,29.6
				c16.2,7.2,18.1-2.3,22.3,4.7c4.3,7-3.2,20.8,3.6,32c6.8,11.3,20.1,20.5,33.6,14c13.5-6.5,18.3-10.4,11.1-23.2s-6.8-14.7-3.6-20.1
				c3.2-5.4,12-8.8,5-29.1s-20.8-9-20.8-24.6c0-15.6,1.4-22.6-4.7-35.4c-6.1-12.9-16.9-18.7-31.6-20.8
				C549.4,138,538.6,136.2,537.7,145.7z"/>
			<path class="st5" d="M553.2,194c0,0,4.1-7.2,10.6-5.6c6.5,1.6,3.4,9,0.7,13.1c-2.7,4.1-9.5,3.6-11.5,2"/>
			<path class="st3" d="M521.1,199.7c0,0,3.8,2,9.7-2.9"/>
			<path class="st3" d="M530.2,179.6c0,0,3.6-3.8,7-0.2"/>
			<path class="st3" d="M531.3,171.9c0,0,5.4-2.7,7.7,2.7"/>
			<polygon class="st6" points="535.9,215.4 546.2,212.5 539.2,222.4 			"/>
		</g>
		<g>
			<path class="st7" d="M538.6,241.4c0,0,5.9-1.8,13.1,14.4c7.2,16.2,22.6,62.7,22.6,62.7l22.1-2.3l1.6-4.7l3.4-2.9
				c0,0,3.4-4.1,5-2.9c1.6,1.1,1.8,2.9,1.8,2.9s3.4,0.5,3.8,2c0.5,1.6-0.9,3.6-0.9,3.6s0.9,3.8,0.5,7.4c-0.5,3.6-0.9,4.7-5.6,6.5
				s-8.6,2.5-8.6,2.5s-13.5,5-21.4,8.3c-7.9,3.4-16.2,5.2-19.4,3.6c-3.2-1.6-5.2-5.9-5.2-5.9s-0.9-9-0.7-12
				c0.2-2.9-0.2-17.4,0.2-25.7c0.5-8.3-3.6-25.9-5.2-32c-1.6-6.1-7-23.2-7-23.2"/>
			<path class="st5" d="M581,326c0.5,6.3-1.1,9-3.2,11.1c-0.7,0.7-1.4,1.4-2,2c7.9-3.4,21.4-8.3,21.4-8.3s3.8-0.7,8.6-2.5
				c4.7-1.8,5.2-2.9,5.6-6.5c0.5-3.6-0.5-7.4-0.5-7.4s1.4-2,0.9-3.6c-0.5-1.6-3.8-2-3.8-2s-0.2-1.8-1.8-2.9c-1.6-1.1-5,2.9-5,2.9
				l-3.4,2.9l-1.6,4.7l-22.1,2.3C574.2,318.6,580.5,319.7,581,326z"/>
			<g>
				<path class="st5" d="M574.2,318.6c0,0,2.5,4.7,0.5,11.1"/>
				<path class="st5" d="M577.4,322.9c0,0,1.8,3.2-0.5,9"/>
			</g>
		</g>
		<path class="st6" d="M566.7,458c-0.4-8-1.4-22.5-3.3-30.7c-2.7-11.7-7.4-35.7-7.4-35.7s-12.2,9.5-49.2,11.3
			c-37,1.8-52.1-3.4-52.1-3.4l2,58.4H566.7z"/>
		<path class="st7" d="M453.5,361.4c0,0-3.6,35-2,39c1.6,4.1,30.2,14.7,53.3,12.2c23-2.5,46.3-8.1,50.1-11.5
			c3.8-3.4,5.6-5.9,5.2-8.1c-0.5-2.3-8.3-50.3-8.3-50.3s3.6-41.1-0.9-62.3c-4.5-21.2-7.4-36.1-12.2-39c-4.7-2.9-19.6-5-22.8-4.7
			c-3.2,0.2-48.5,14.7-48.5,14.7l-10.2,3.6c0,0-19.9,9.7-20.3,14s11.1,55.3,11.3,66.1C448.3,345.9,453.5,361.4,453.5,361.4z"/>
		<g>
			<path class="st4" d="M445.8,458l-11.3-46.1l-4.6-5.1c0,0-24.3,10.1-59.6,8.9c-35.3-1.2-48.3-10.5-48.3-10.5
				c-2.9,8.8-7.4,40.6-9.1,52.8H445.8z"/>
			<line class="st3" x1="375.1" y1="454.5" x2="380.6" y2="455.5"/>
			<line class="st3" x1="346.9" y1="449.5" x2="371.6" y2="453.9"/>
		</g>
		<path class="st6" d="M328.4,248.7l-14.6,4.9c0,0-14.6,4.6-15.1,5.9c-0.5,1.4,15.4,54.9,16.5,59.5c1.1,4.6,11.1,43.5,11.1,43.5
			l-8.9,47.8c0,0,34.6,14.1,62.2,12.7c27.6-1.4,55.1-11.1,55.1-11.1l-6.5-38.6c0,0-0.3-50.5-3.5-70.8c-3.2-20.3-9.5-34.9-12.7-39.7
			c-3.2-4.9-14.3-10.8-20.5-13c-6.2-2.2-15.7-3.5-16.8-3.5C373.5,246.3,328.4,248.7,328.4,248.7z"/>
		<path class="st7" d="M431.9,396.1c-12.1,4.9-34.6,11.9-61.9,10.6c-28-1.4-43.2-7.8-49.9-11.6l-2.9,15.3c0,0,34.6,14.1,62.2,12.7
			c27.6-1.4,55.1-11.1,55.1-11.1L431.9,396.1z"/>
		<g>
			<path class="st7" d="M470.2,306.6l-8.1,68.6c0,0-2.7,4.1-4.5,4.7c-1.8,0.7-24.4,1.8-42.6,0.5c-18.3-1.4-49.6-6.5-49.6-6.5
				s-9.5,1.6-18.7,0.7c-9.3-0.9-22.8-5.4-22.8-6.1c0-0.7,17.6-29.8,21.2-29.3c3.6,0.5,8.1,3.4,17.4,10.4c9.3,7,9.3,6.5,10.4,6.5
				c1.1,0,18.3,0.7,24.1,0c5.9-0.7,35-6.5,35-6.5l3.8-66.8c0,0-2-14.7-1.4-18.3c0.7-3.6,22.8-9.5,22.8-9.5l7.7-1.8l13.8,3.6l2.7,5.2
				"/>
			<path class="st5" d="M407.5,354.2c-4.7,0.9-8.8,1.6-10.6,1.8c-5.9,0.7-23,0-24.1,0s-1.1,0.5-10.4-6.5c-9.3-7-13.8-9.9-17.4-10.4
				c-3.6-0.5-21.2,28.7-21.2,29.3c0,0.7,13.5,5.2,22.8,6.1c9.3,0.9,18.7-0.7,18.7-0.7s24.7,4.1,43,6
				C401.7,369.3,404.7,359.6,407.5,354.2z"/>
		</g>
		<g>
			<path class="st5" d="M204.3,257.6c0,0-27.6,8.1-27.6,9.2c0,1.1-17,88.9-17.8,90.5c-0.8,1.6,5.9,14.3,16.5,16.5
				c10.5,2.2,17.8-5.4,17.8-5.4l3.5-5.7l4.1,18.4l-4.3,50.5c0,0,15.9,15.1,54.9,14.1c38.9-1.1,57.6-10.8,61.3-13.5
				c3.8-2.7,5.1-7.8,5.1-7.8l-9.2-49.2c0,0,4.1,4.9,11.9,1.1c7.8-3.8,70-77.8,72-80s5.4-5.8,5.4-5.8s9.7-3.3,13.2-5
				c3.5-1.7,8.8-6.1,10-7.1c1.2-0.9,4.6,0.6,6-0.3c1.5-0.9-0.5-2.3-1.7-3.5c-1.2-1.3-2.9-6.9-4.5-9.1c-1.6-2.1-1.9-4.3-1.9-4.3
				s-0.1-3.3-1.3-4.5c-1.2-1.3-5.1-0.7-5.1-0.7s-13.6,3.6-14.6,4.8c-1,1.2-18.7,28.2-18.7,28.2l-52,32.9c0,0-22.7-38.3-29.7-48.1
				c-7-9.7-22.7-16.2-22.7-16.2l-6.5-4.1C268.7,253.6,230.6,246.8,204.3,257.6z"/>
			<path class="st5" d="M308.7,375.2c0,0-6.9-3.2-17-18.4c-9.1-13.7-27.6-39.2-27.6-39.2"/>
			<path class="st5" d="M338,346.7c0.3,1.2,0.6,2.3,0.7,3.3"/>
			<path class="st5" d="M328,324.4c0,0,5.1,9.1,8.3,17.3"/>
			<path class="st5" d="M258.7,369.7c1.8,1,3.6,1.9,5.4,2.8"/>
			<path class="st5" d="M224.9,339.3c0,0,12,15.4,27.3,26.3"/>
			<line class="st5" x1="196.8" y1="362.8" x2="190.6" y2="343.8"/>
			<path class="st5" d="M226.5,348.4c0,0,13.5,16.2,21.6,20.5"/>
		</g>
		<g>
			<path class="st5" d="M179.5,307.9c0,0-25.9-31.9-34.6-41.3c-8.6-9.5-16.8-16.8-25.1-14.1c-8.4,2.7-12.2,14.6-5.7,24.1
				c6.5,9.5,49.7,62.7,54.9,66.5c5.1,3.8,9.7,4.1,11.1,3.5c1.4-0.5,75.7-68.1,75.7-68.1s8.6-1.9,10.3-3.5c1.6-1.6,7.6-11.9,8.6-12.4
				c1.1-0.5,4.9-1.1,6.2-1.9s0.3-3-1.4-3.5c-1.6-0.5-5.1-2.4-5.1-2.4s-1.6-3.5-3.8-3.8c-2.2-0.3-8.6-1.4-8.6-1.4s-1.9-4.6-4.1-3.5
				c-2.2,1.1-5.7,3.2-8.1,9.7c-2.4,6.5-4.3,12.7-5.4,15.4C243.3,273.9,179.5,307.9,179.5,307.9z"/>
			<path class="st6" d="M234.1,277.8l9.6,11.5c2.1-1.9,4.1-3.7,5.7-5.2l-8.1-10.7C239.5,274.6,237,276.1,234.1,277.8z"/>
		</g>
		<g>
			<path class="st6" d="M322.4,250.9c0,0-22.4,6.2-26.5,10.3c-4.1,4.1-47,44-47,44s-31.6-10.5-37.6-15.1
				c-5.9-4.6-12.7-11.1-12.7-11.1s1.1-13.8,0-15.1c-1.1-1.4-3-4.9-5.9-7.6c-3-2.7-6.2-2.2-7.3-0.8c-1.1,1.4-1.6,3.2-1.6,3.2
				s-6.2-1.6-8.6,0c-2.4,1.6-2.2,4.3-2.2,5.9c0,1.6-3,9.7-3.5,12.7s3,7,7,9.7c4.1,2.7,11.1,6.2,13.5,7.6
				c2.4,1.4,41.6,36.5,41.6,36.5s4.6,4.1,11.9,3.8c3.5-0.1,61.9-33.5,61.9-33.5l12.4-4.9"/>
			<g>
				<path class="st5" d="M211.4,290.1c-5.9-4.6-12.7-11.1-12.7-11.1s1.1-13.8,0-15.1c-1.1-1.4-3-4.9-5.9-7.6c-3-2.7-6.2-2.2-7.3-0.8
					c-1.1,1.4-1.6,3.2-1.6,3.2s-6.2-1.6-8.6,0c-2.4,1.6-2.2,4.3-2.2,5.9c0,1.6-3,9.7-3.5,12.7c-0.5,3,3,7,7,9.7
					c4.1,2.7,11.1,6.2,13.5,7.6c0.9,0.5,7.2,6,14.6,12.5c0.6-2,1.4-4.6,2.6-7.9c1.8-4.7,3.6-7.2,5.1-8.5
					C212,290.5,211.6,290.3,211.4,290.1z"/>
				<path class="st7" d="M209.2,286.6c0,0-4.3-0.5-8.4,4.9c-4.1,5.4-7.3,11.9-7.3,11.9l14.6,8.1c0,0,0-5.4,4.1-10.5
					c4.1-5.1,8.1-7,8.1-7L209.2,286.6z"/>
			</g>
		</g>
		<path class="st9" d="M368.9,163.3c0,0-3.2-8.6-11.4-10.8c-8.1-2.2-9.5-1.9-8.1,0.5c1.4,2.4,5.1,6.2,5.1,6.2s-12.7-3.8-18.4-1.6
			c-5.7,2.2-3,5.7-3,5.7s-11.4,4.1-18.4,10.8c-7,6.8-14.6,19.2-13.8,21.1c0.8,1.9,5.9-0.8,5.9-0.8s-7,17.8-5.4,20.3
			c1.6,2.4,5.4-0.3,5.4-0.3s-5.1,26.8,0.3,31.9c5.4,5.1,6.2,1.9,6.2,1.9s7.8,9.5,18.4,12.4c10.5,3,12.7-0.5,12.7-0.5
			s-0.8,5.1,2.7,4.6c3.5-0.5,13.5-6.2,13.5-6.2s-0.5,5.7,5.4,3.2s14.6-4.1,23.8-14.6c9.2-10.5,10.8-25.4,10.8-25.4s1.4,5.4,3.2,2.4
			c1.9-3,4.9-12.4,3.2-19.7c-1.6-7.3-1.9-9.2-1.9-9.2s5.1,0.5,5.1-2.4c0-3-6.5-14.1-16.2-21.1c-9.7-7-21.3-7.6-21.3-7.6
			s3.5-4.3,1.1-4.3C371.6,159.8,368.9,163.3,368.9,163.3z"/>
		<g>
			<path class="st6" d="M402.7,254.9c0,0,15.4,9.2,24.9,23.2c9.5,14.1,34.6,55.9,34.6,55.9l32.4,1.6l2.2,17.6c0,0-44.9,13.8-50,13.2
				c-5.1-0.5-47.6-57.6-49.5-58.6"/>
			<g>
				<path class="st5" d="M494.6,335.7c0,0,7.3-1.1,11.6-3.2c4.3-2.2,7-5.7,8.1-7c1.1-1.4,0.5-2.2,4-4.3c3.5-2.2,6.6-4,7.7-5.4
					c1.1-1.4,2-1.6,2,1.4s-3.9,5.9-4.5,6.7c-0.5,0.8-1.1,2.4-1.1,2.4l17-0.5c0,0,6.2-0.8,6.8-0.3c0.5,0.5-0.3,1.9-1.1,2.4
					c-0.8,0.5-5.3,1.1-5.3,1.1l-4.5,0.7l1.5,1.4l11.2-0.9c0,0,0.9,0.6,0.6,1.4c-0.2,0.7-0.2,0.7-0.2,0.7s-10.1,2.2-10.6,2.4
					c-0.5,0.1-1.6,0.2-1.6,0.2s3.4,1.6,5.9,1.6s5.7,0,5.7,0.6c0,0.6,0.2,0.9-0.6,1.2c-0.9,0.4-6.2,0.6-8,0.7
					c-1.7,0.1-2.2,0.2-2.7,0.2c-0.5,0,6.1,2.4,7.2,2.4c1.1,0,1.7,1,1,1.6c-0.7,0.6-1.9,0.7-1.9,0.7s-6-1.1-6.9-1.1
					s-14.7,0.7-17.5,0.9c-2.7,0.1-2.7,0.1-2.7,0.1l-4-0.4l-7.9,4.6l-2.6,1.5L494.6,335.7z"/>
				<path class="st7" d="M478.1,334.4c0,0,5.9,14.3,5.9,17.8c0,3.5,0.3,7.8,0.3,7.8s5.7-1.1,11.4-1.6c5.7-0.5,8.6-2.4,8.6-2.4
					s0-10.8-3.2-15.9c-3.2-5.1-4.6-6.8-4.6-6.8L478.1,334.4z"/>
			</g>
		</g>
		<g>
			<path class="st5" d="M438.4,176.6c0,0-6.1,13.5-2.7,21.4c3.4,7.9,2.5,8.1,2,10.6c-0.5,2.5-6.5,9-5.6,10.8
				c0.9,1.8,6.3,2.9,6.3,2.9s5.9,14,9.5,17.6c3.6,3.6,7.7,0.9,7.7,0.9l5.2-1.6l4.1,9.3l35.4-14l-9.5-15.8c0,0,5-3.8,3.6-18.3
				c-1.4-14.4-21.4-30-34.3-30.5S440.6,172.6,438.4,176.6z"/>
			<path class="st3" d="M441.5,228.2c0,0,5,0.2,7.9-5.2"/>
			<path class="st8" d="M444.9,207c0.3,1.5,0,2.9-0.7,3c-0.7,0.1-1.4-1-1.7-2.6s0-2.9,0.7-3C443.9,204.3,444.6,205.5,444.9,207z"/>
			<path class="st3" d="M439.7,201.9c0,0,1.4-4.3,5.9-1.8"/>
		</g>
		<path class="st6" d="M441.1,176.2c0,0-10.2,5.4-7.4,9c2.7,3.6,13.3-5,13.3-5s-4.1,4.5,0,8.3c4.1,3.8,11.5,6.8,11.5,6.8
			s2,5.2,3.4,4.5c1.4-0.7,2.9-5.9,2.9-5.9s8.3-4.1,10.2,5c1.8,9,1.8,12.2-0.2,14c-2,1.8-6.1,2-6.1,2s2,4.1,7.9,8.3
			c5.9,4.3,11.1,4.1,13.8,2.3c2.7-1.8,6.1-4.1,7.7-5.9s3.4-6.3,3.4-6.3s12-13.3,9.9-28.2c-2-14.9-10.2-16.7-10.2-16.7
			s-5.4-16.9-22.6-21.4c-17.1-4.5-25.7-0.5-25.5,2.3c0.2,2.7,1.8,3.6,1.8,3.6s-12.9-0.9-21,6.8c-8.1,7.7-9,13.8-6.8,15.6
			C429.4,177.1,441.1,176.2,441.1,176.2z"/>
		<g>
			<path class="st5" d="M545.1,243.2c0,0-3.4-7-5.6-7.9c-2.3-0.9-14.7-5-17.6-5.4c-2.9-0.5-8.3,1.4-10.8,2.7
				c-2.5,1.4-2.7,4.7-0.9,4.7c1.8,0,8.8,0,8.8,0s2,3.8,7,6.5c5,2.7,9.3,4.7,9.3,4.7s16.2,69.5,19.2,74c2.9,4.5,13.8,14.7,16.9,13.3
				s8.6-19.6,10.6-33.8c2-14.2,5-47.4,1.6-57.5c-3.4-10.2-10.4-16.5-18.7-14s-11.3,9.3-11.5,12.9c-0.2,3.6-1.6,12.4-1.6,12.4
				L545.1,243.2z"/>
			<path class="st3" d="M551.7,255.8c0,0,23.2,39,24.7,43.6c1.5,4.6,1.9,6.5,1.9,6.5"/>
			<g>
				<path class="st7" d="M545.1,243.2c0,0-0.7-1.5-1.7-3.1l0,0.2l2.2,3.8L545.1,243.2z"/>
				<path class="st5" d="M564.7,230.6c-8.3,2.5-11.3,9.3-11.5,12.9c-0.1,1.8-0.5,5-0.9,7.6c5.7-2.9,22.2-9.2,32.7,8.7
					c0-6.5-0.5-12-1.5-15.2C580.1,234.4,573.1,228.1,564.7,230.6z"/>
			</g>
		</g>
		<g>
			<path class="st7" d="M463,244.3c0,0-6.8,9-5.9,10.6c0.9,1.6,15.3,1.4,15.3,1.4s27.8,32,31.4,32.9c3.6,0.9,18.7-8.6,21-11.7
				c2.3-3.2,4.7-7.7,1.8-19.6c-2.9-12-7.9-25.3-10.4-27.8c-2.5-2.5-12-1.8-13.8-0.5c-1.8,1.4-3.4,3.4-3.4,3.4s-28.7,10.2-29.3,10.4
				C469.1,243.6,463,244.3,463,244.3z"/>
			<path class="st3" d="M469.7,243.4c0,0,13.3,2.9,17.4,5.4c4.1,2.5,27.5,27.5,29.6,28.9c2,1.4,5.4-3.4,5.4-3.4"/>
			<path class="st3" d="M500.2,234.6c0,0,7.9-2.5,9.5-1.4c1.6,1.1,6.1,8.3,5.6,14.9c-0.5,6.5-5.6,14.9-5.6,14.9"/>
			<path class="st3" d="M491,251.3c0,0,12.2,2.5,16.5,0.5c4.3-2,5.2-7.4,5.2-7.4"/>
		</g>
		<g>
			<path class="st5" d="M425.5,274.7c-1.2-1.3-2.9-6.9-4.5-9.1s-1.9-4.3-1.9-4.3s-0.1-3.3-1.3-4.5c-1.2-1.3-5.1-0.7-5.1-0.7
				s-13.6,3.6-14.6,4.8c-1,1.2-18.7,28.2-18.7,28.2l-42,26.6c3.5,4.1,9.3,10.9,11.8,14.5c2,3.1,4.9,6.8,6,9.3
				c18.6-20.3,36.1-41.9,37.2-43.1c1.9-2.2,5.4-5.8,5.4-5.8s9.7-3.3,13.2-5c3.5-1.7,8.8-6.1,10-7.1c1.2-0.9,4.6,0.6,6-0.3
				C428.7,277.3,426.7,275.9,425.5,274.7z"/>
			<path class="st5" d="M332.1,318.7c0,0,14.8,15.7,19.8,26.4l10.1-11.7c0,0-8.2-13.9-12.8-17.8c-4.6-3.9-6.4-4.4-6.4-4.4
				L332.1,318.7z"/>
			<path class="st5" d="M419.2,261.3c0,0-3.7-1.1-5.4-0.5"/>
			<path class="st5" d="M425.5,274.7c0,0-3.4-2.7-5.7-1.9"/>
		</g>
	</g>
</g>
<g id="Speech_Bubble">
</g>
</svg>
